<?xml version="1.0" encoding="UTF-8"?>
<svg xmlns="http://www.w3.org/2000/svg" viewBox="0 0 800 500" width="800" height="500">
  <defs>
    <linearGradient id="g" x1="0" y1="1" x2="0" y2="0">
      <stop offset="0%" stop-color="#1E3A5F"/>
      <stop offset="60%" stop-color="#334155"/>
      <stop offset="100%" stop-color="#64748B"/>
    </linearGradient>
  </defs>
  <rect width="800" height="500" fill="url(#g)"/>
  <!-- silhouette skyline -->
  <g fill="#0F172A" opacity="0.85">
    <rect x="40"  y="340" width="60" height="120"/>
    <rect x="110" y="310" width="40" height="150"/>
    <rect x="160" y="360" width="80" height="100"/>
    <rect x="250" y="300" width="50" height="160"/>
    <polygon points="310,300 340,260 370,300 370,460 310,460"/>
    <rect x="380" y="330" width="70" height="130"/>
    <rect x="460" y="290" width="55" height="170"/>
    <rect x="525" y="360" width="100" height="100"/>
    <polygon points="635,340 655,310 675,340 675,460 635,460"/>
    <rect x="685" y="320" width="75" height="140"/>
  </g>
  <g fill="#FDFCF9" opacity="0.6">
    <circle cx="120" cy="120" r="2"/>
    <circle cx="250" cy="85" r="2"/>
    <circle cx="360" cy="140" r="2"/>
    <circle cx="480" cy="100" r="2"/>
    <circle cx="610" cy="130" r="2"/>
    <circle cx="700" cy="80" r="2"/>
  </g>
  <text x="56" y="140" font-family="Inter, sans-serif" font-size="14" letter-spacing="6" fill="#7FAE96">BLOG · TRANSITION</text>
  <text x="56" y="215" font-family="Georgia, 'Instrument Serif', serif" font-size="60" fill="#FDFCF9">Moving to Dublin</text>
</svg>
